<?xml version="1.0" encoding="utf-8" standalone="no"?>
<!DOCTYPE svg PUBLIC "-//W3C//DTD SVG 1.1//EN"
  "http://www.w3.org/Graphics/SVG/1.1/DTD/svg11.dtd">
<svg xmlns:xlink="http://www.w3.org/1999/xlink" width="864pt" height="432pt" viewBox="0 0 864 432" xmlns="http://www.w3.org/2000/svg" version="1.1">
 <metadata>
  <rdf:RDF xmlns:dc="http://purl.org/dc/elements/1.1/" xmlns:cc="http://creativecommons.org/ns#" xmlns:rdf="http://www.w3.org/1999/02/22-rdf-syntax-ns#">
   <cc:Work>
    <dc:type rdf:resource="http://purl.org/dc/dcmitype/StillImage"/>
    <dc:date>2025-06-01T19:02:33.962896</dc:date>
    <dc:format>image/svg+xml</dc:format>
    <dc:creator>
     <cc:Agent>
      <dc:title>Matplotlib v3.10.3, https://matplotlib.org/</dc:title>
     </cc:Agent>
    </dc:creator>
   </cc:Work>
  </rdf:RDF>
 </metadata>
 <defs>
  <style type="text/css">*{stroke-linejoin: round; stroke-linecap: butt}</style>
 </defs>
 <g id="figure_1">
  <g id="patch_1">
   <path d="M 0 432 
L 864 432 
L 864 0 
L 0 0 
z
" style="fill: #ffffff"/>
  </g>
  <g id="axes_1">
   <g id="patch_2">
    <path d="M 44.57 390.04 
L 853.2 390.04 
L 853.2 44.16 
L 44.57 44.16 
z
" style="fill: #ffffff"/>
   </g>
   <g id="matplotlib.axis_1">
    <g id="xtick_1">
     <g id="line2d_1">
      <path d="M 72.972293 390.04 
L 72.972293 44.16 
" clip-path="url(#p701cad0fff)" style="fill: none; stroke: #b0b0b0; stroke-width: 0.8; stroke-linecap: square"/>
     </g>
     <g id="line2d_2">
      <defs>
       <path id="mcf9d695243" d="M 0 0 
L 0 3.5 
" style="stroke: #000000; stroke-width: 0.8"/>
      </defs>
      <g>
       <use xlink:href="#mcf9d695243" x="72.972293" y="390.04" style="stroke: #000000; stroke-width: 0.8"/>
      </g>
     </g>
     <g id="text_1">
      <!-- 0 -->
      <g transform="translate(69.791043 404.638438) scale(0.1 -0.1)">
       <defs>
        <path id="DejaVuSans-30" d="M 2034 4250 
Q 1547 4250 1301 3770 
Q 1056 3291 1056 2328 
Q 1056 1369 1301 889 
Q 1547 409 2034 409 
Q 2525 409 2770 889 
Q 3016 1369 3016 2328 
Q 3016 3291 2770 3770 
Q 2525 4250 2034 4250 
z
M 2034 4750 
Q 2819 4750 3233 4129 
Q 3647 3509 3647 2328 
Q 3647 1150 3233 529 
Q 2819 -91 2034 -91 
Q 1250 -91 836 529 
Q 422 1150 422 2328 
Q 422 3509 836 4129 
Q 1250 4750 2034 4750 
z
" transform="scale(0.015625)"/>
       </defs>
       <use xlink:href="#DejaVuSans-30"/>
      </g>
     </g>
    </g>
    <g id="xtick_2">
     <g id="line2d_3">
      <path d="M 240.044607 390.04 
L 240.044607 44.16 
" clip-path="url(#p701cad0fff)" style="fill: none; stroke: #b0b0b0; stroke-width: 0.8; stroke-linecap: square"/>
     </g>
     <g id="line2d_4">
      <g>
       <use xlink:href="#mcf9d695243" x="240.044607" y="390.04" style="stroke: #000000; stroke-width: 0.8"/>
      </g>
     </g>
     <g id="text_2">
      <!-- 20 -->
      <g transform="translate(233.682107 404.638438) scale(0.1 -0.1)">
       <defs>
        <path id="DejaVuSans-32" d="M 1228 531 
L 3431 531 
L 3431 0 
L 469 0 
L 469 531 
Q 828 903 1448 1529 
Q 2069 2156 2228 2338 
Q 2531 2678 2651 2914 
Q 2772 3150 2772 3378 
Q 2772 3750 2511 3984 
Q 2250 4219 1831 4219 
Q 1534 4219 1204 4116 
Q 875 4013 500 3803 
L 500 4441 
Q 881 4594 1212 4672 
Q 1544 4750 1819 4750 
Q 2544 4750 2975 4387 
Q 3406 4025 3406 3419 
Q 3406 3131 3298 2873 
Q 3191 2616 2906 2266 
Q 2828 2175 2409 1742 
Q 1991 1309 1228 531 
z
" transform="scale(0.015625)"/>
       </defs>
       <use xlink:href="#DejaVuSans-32"/>
       <use xlink:href="#DejaVuSans-30" transform="translate(63.623047 0)"/>
      </g>
     </g>
    </g>
    <g id="xtick_3">
     <g id="line2d_5">
      <path d="M 407.116921 390.04 
L 407.116921 44.16 
" clip-path="url(#p701cad0fff)" style="fill: none; stroke: #b0b0b0; stroke-width: 0.8; stroke-linecap: square"/>
     </g>
     <g id="line2d_6">
      <g>
       <use xlink:href="#mcf9d695243" x="407.116921" y="390.04" style="stroke: #000000; stroke-width: 0.8"/>
      </g>
     </g>
     <g id="text_3">
      <!-- 40 -->
      <g transform="translate(400.754421 404.638438) scale(0.1 -0.1)">
       <defs>
        <path id="DejaVuSans-34" d="M 2419 4116 
L 825 1625 
L 2419 1625 
L 2419 4116 
z
M 2253 4666 
L 3047 4666 
L 3047 1625 
L 3713 1625 
L 3713 1100 
L 3047 1100 
L 3047 0 
L 2419 0 
L 2419 1100 
L 313 1100 
L 313 1709 
L 2253 4666 
z
" transform="scale(0.015625)"/>
       </defs>
       <use xlink:href="#DejaVuSans-34"/>
       <use xlink:href="#DejaVuSans-30" transform="translate(63.623047 0)"/>
      </g>
     </g>
    </g>
    <g id="xtick_4">
     <g id="line2d_7">
      <path d="M 574.189236 390.04 
L 574.189236 44.16 
" clip-path="url(#p701cad0fff)" style="fill: none; stroke: #b0b0b0; stroke-width: 0.8; stroke-linecap: square"/>
     </g>
     <g id="line2d_8">
      <g>
       <use xlink:href="#mcf9d695243" x="574.189236" y="390.04" style="stroke: #000000; stroke-width: 0.8"/>
      </g>
     </g>
     <g id="text_4">
      <!-- 60 -->
      <g transform="translate(567.826736 404.638438) scale(0.1 -0.1)">
       <defs>
        <path id="DejaVuSans-36" d="M 2113 2584 
Q 1688 2584 1439 2293 
Q 1191 2003 1191 1497 
Q 1191 994 1439 701 
Q 1688 409 2113 409 
Q 2538 409 2786 701 
Q 3034 994 3034 1497 
Q 3034 2003 2786 2293 
Q 2538 2584 2113 2584 
z
M 3366 4563 
L 3366 3988 
Q 3128 4100 2886 4159 
Q 2644 4219 2406 4219 
Q 1781 4219 1451 3797 
Q 1122 3375 1075 2522 
Q 1259 2794 1537 2939 
Q 1816 3084 2150 3084 
Q 2853 3084 3261 2657 
Q 3669 2231 3669 1497 
Q 3669 778 3244 343 
Q 2819 -91 2113 -91 
Q 1303 -91 875 529 
Q 447 1150 447 2328 
Q 447 3434 972 4092 
Q 1497 4750 2381 4750 
Q 2619 4750 2861 4703 
Q 3103 4656 3366 4563 
z
" transform="scale(0.015625)"/>
       </defs>
       <use xlink:href="#DejaVuSans-36"/>
       <use xlink:href="#DejaVuSans-30" transform="translate(63.623047 0)"/>
      </g>
     </g>
    </g>
    <g id="xtick_5">
     <g id="line2d_9">
      <path d="M 741.26155 390.04 
L 741.26155 44.16 
" clip-path="url(#p701cad0fff)" style="fill: none; stroke: #b0b0b0; stroke-width: 0.8; stroke-linecap: square"/>
     </g>
     <g id="line2d_10">
      <g>
       <use xlink:href="#mcf9d695243" x="741.26155" y="390.04" style="stroke: #000000; stroke-width: 0.8"/>
      </g>
     </g>
     <g id="text_5">
      <!-- 80 -->
      <g transform="translate(734.89905 404.638438) scale(0.1 -0.1)">
       <defs>
        <path id="DejaVuSans-38" d="M 2034 2216 
Q 1584 2216 1326 1975 
Q 1069 1734 1069 1313 
Q 1069 891 1326 650 
Q 1584 409 2034 409 
Q 2484 409 2743 651 
Q 3003 894 3003 1313 
Q 3003 1734 2745 1975 
Q 2488 2216 2034 2216 
z
M 1403 2484 
Q 997 2584 770 2862 
Q 544 3141 544 3541 
Q 544 4100 942 4425 
Q 1341 4750 2034 4750 
Q 2731 4750 3128 4425 
Q 3525 4100 3525 3541 
Q 3525 3141 3298 2862 
Q 3072 2584 2669 2484 
Q 3125 2378 3379 2068 
Q 3634 1759 3634 1313 
Q 3634 634 3220 271 
Q 2806 -91 2034 -91 
Q 1263 -91 848 271 
Q 434 634 434 1313 
Q 434 1759 690 2068 
Q 947 2378 1403 2484 
z
M 1172 3481 
Q 1172 3119 1398 2916 
Q 1625 2713 2034 2713 
Q 2441 2713 2670 2916 
Q 2900 3119 2900 3481 
Q 2900 3844 2670 4047 
Q 2441 4250 2034 4250 
Q 1625 4250 1398 4047 
Q 1172 3844 1172 3481 
z
" transform="scale(0.015625)"/>
       </defs>
       <use xlink:href="#DejaVuSans-38"/>
       <use xlink:href="#DejaVuSans-30" transform="translate(63.623047 0)"/>
      </g>
     </g>
    </g>
    <g id="text_6">
     <!-- Move -->
     <g transform="translate(435.475625 418.316562) scale(0.1 -0.1)">
      <defs>
       <path id="DejaVuSans-4d" d="M 628 4666 
L 1569 4666 
L 2759 1491 
L 3956 4666 
L 4897 4666 
L 4897 0 
L 4281 0 
L 4281 4097 
L 3078 897 
L 2444 897 
L 1241 4097 
L 1241 0 
L 628 0 
L 628 4666 
z
" transform="scale(0.015625)"/>
       <path id="DejaVuSans-6f" d="M 1959 3097 
Q 1497 3097 1228 2736 
Q 959 2375 959 1747 
Q 959 1119 1226 758 
Q 1494 397 1959 397 
Q 2419 397 2687 759 
Q 2956 1122 2956 1747 
Q 2956 2369 2687 2733 
Q 2419 3097 1959 3097 
z
M 1959 3584 
Q 2709 3584 3137 3096 
Q 3566 2609 3566 1747 
Q 3566 888 3137 398 
Q 2709 -91 1959 -91 
Q 1206 -91 779 398 
Q 353 888 353 1747 
Q 353 2609 779 3096 
Q 1206 3584 1959 3584 
z
" transform="scale(0.015625)"/>
       <path id="DejaVuSans-76" d="M 191 3500 
L 800 3500 
L 1894 563 
L 2988 3500 
L 3597 3500 
L 2284 0 
L 1503 0 
L 191 3500 
z
" transform="scale(0.015625)"/>
       <path id="DejaVuSans-65" d="M 3597 1894 
L 3597 1613 
L 953 1613 
Q 991 1019 1311 708 
Q 1631 397 2203 397 
Q 2534 397 2845 478 
Q 3156 559 3463 722 
L 3463 178 
Q 3153 47 2828 -22 
Q 2503 -91 2169 -91 
Q 1331 -91 842 396 
Q 353 884 353 1716 
Q 353 2575 817 3079 
Q 1281 3584 2069 3584 
Q 2775 3584 3186 3129 
Q 3597 2675 3597 1894 
z
M 3022 2063 
Q 3016 2534 2758 2815 
Q 2500 3097 2075 3097 
Q 1594 3097 1305 2825 
Q 1016 2553 972 2059 
L 3022 2063 
z
" transform="scale(0.015625)"/>
      </defs>
      <use xlink:href="#DejaVuSans-4d"/>
      <use xlink:href="#DejaVuSans-6f" transform="translate(86.279297 0)"/>
      <use xlink:href="#DejaVuSans-76" transform="translate(147.460938 0)"/>
      <use xlink:href="#DejaVuSans-65" transform="translate(206.640625 0)"/>
     </g>
    </g>
   </g>
   <g id="matplotlib.axis_2">
    <g id="ytick_1">
     <g id="line2d_11">
      <path d="M 44.57 354.818252 
L 853.2 354.818252 
" clip-path="url(#p701cad0fff)" style="fill: none; stroke: #b0b0b0; stroke-width: 0.8; stroke-linecap: square"/>
     </g>
     <g id="line2d_12">
      <defs>
       <path id="m9ff7170398" d="M 0 0 
L -3.5 0 
" style="stroke: #000000; stroke-width: 0.8"/>
      </defs>
      <g>
       <use xlink:href="#m9ff7170398" x="44.57" y="354.818252" style="stroke: #000000; stroke-width: 0.8"/>
      </g>
     </g>
     <g id="text_7">
      <!-- 0 -->
      <g transform="translate(31.2075 358.617471) scale(0.1 -0.1)">
       <use xlink:href="#DejaVuSans-30"/>
      </g>
     </g>
    </g>
    <g id="ytick_2">
     <g id="line2d_13">
      <path d="M 44.57 293.880973 
L 853.2 293.880973 
" clip-path="url(#p701cad0fff)" style="fill: none; stroke: #b0b0b0; stroke-width: 0.8; stroke-linecap: square"/>
     </g>
     <g id="line2d_14">
      <g>
       <use xlink:href="#m9ff7170398" x="44.57" y="293.880973" style="stroke: #000000; stroke-width: 0.8"/>
      </g>
     </g>
     <g id="text_8">
      <!-- 5 -->
      <g transform="translate(31.2075 297.680191) scale(0.1 -0.1)">
       <defs>
        <path id="DejaVuSans-35" d="M 691 4666 
L 3169 4666 
L 3169 4134 
L 1269 4134 
L 1269 2991 
Q 1406 3038 1543 3061 
Q 1681 3084 1819 3084 
Q 2600 3084 3056 2656 
Q 3513 2228 3513 1497 
Q 3513 744 3044 326 
Q 2575 -91 1722 -91 
Q 1428 -91 1123 -41 
Q 819 9 494 109 
L 494 744 
Q 775 591 1075 516 
Q 1375 441 1709 441 
Q 2250 441 2565 725 
Q 2881 1009 2881 1497 
Q 2881 1984 2565 2268 
Q 2250 2553 1709 2553 
Q 1456 2553 1204 2497 
Q 953 2441 691 2322 
L 691 4666 
z
" transform="scale(0.015625)"/>
       </defs>
       <use xlink:href="#DejaVuSans-35"/>
      </g>
     </g>
    </g>
    <g id="ytick_3">
     <g id="line2d_15">
      <path d="M 44.57 232.943693 
L 853.2 232.943693 
" clip-path="url(#p701cad0fff)" style="fill: none; stroke: #b0b0b0; stroke-width: 0.8; stroke-linecap: square"/>
     </g>
     <g id="line2d_16">
      <g>
       <use xlink:href="#m9ff7170398" x="44.57" y="232.943693" style="stroke: #000000; stroke-width: 0.8"/>
      </g>
     </g>
     <g id="text_9">
      <!-- 10 -->
      <g transform="translate(24.845 236.742911) scale(0.1 -0.1)">
       <defs>
        <path id="DejaVuSans-31" d="M 794 531 
L 1825 531 
L 1825 4091 
L 703 3866 
L 703 4441 
L 1819 4666 
L 2450 4666 
L 2450 531 
L 3481 531 
L 3481 0 
L 794 0 
L 794 531 
z
" transform="scale(0.015625)"/>
       </defs>
       <use xlink:href="#DejaVuSans-31"/>
       <use xlink:href="#DejaVuSans-30" transform="translate(63.623047 0)"/>
      </g>
     </g>
    </g>
    <g id="ytick_4">
     <g id="line2d_17">
      <path d="M 44.57 172.006413 
L 853.2 172.006413 
" clip-path="url(#p701cad0fff)" style="fill: none; stroke: #b0b0b0; stroke-width: 0.8; stroke-linecap: square"/>
     </g>
     <g id="line2d_18">
      <g>
       <use xlink:href="#m9ff7170398" x="44.57" y="172.006413" style="stroke: #000000; stroke-width: 0.8"/>
      </g>
     </g>
     <g id="text_10">
      <!-- 15 -->
      <g transform="translate(24.845 175.805632) scale(0.1 -0.1)">
       <use xlink:href="#DejaVuSans-31"/>
       <use xlink:href="#DejaVuSans-35" transform="translate(63.623047 0)"/>
      </g>
     </g>
    </g>
    <g id="ytick_5">
     <g id="line2d_19">
      <path d="M 44.57 111.069133 
L 853.2 111.069133 
" clip-path="url(#p701cad0fff)" style="fill: none; stroke: #b0b0b0; stroke-width: 0.8; stroke-linecap: square"/>
     </g>
     <g id="line2d_20">
      <g>
       <use xlink:href="#m9ff7170398" x="44.57" y="111.069133" style="stroke: #000000; stroke-width: 0.8"/>
      </g>
     </g>
     <g id="text_11">
      <!-- 20 -->
      <g transform="translate(24.845 114.868352) scale(0.1 -0.1)">
       <use xlink:href="#DejaVuSans-32"/>
       <use xlink:href="#DejaVuSans-30" transform="translate(63.623047 0)"/>
      </g>
     </g>
    </g>
    <g id="ytick_6">
     <g id="line2d_21">
      <path d="M 44.57 50.131853 
L 853.2 50.131853 
" clip-path="url(#p701cad0fff)" style="fill: none; stroke: #b0b0b0; stroke-width: 0.8; stroke-linecap: square"/>
     </g>
     <g id="line2d_22">
      <g>
       <use xlink:href="#m9ff7170398" x="44.57" y="50.131853" style="stroke: #000000; stroke-width: 0.8"/>
      </g>
     </g>
     <g id="text_12">
      <!-- 25 -->
      <g transform="translate(24.845 53.931072) scale(0.1 -0.1)">
       <use xlink:href="#DejaVuSans-32"/>
       <use xlink:href="#DejaVuSans-35" transform="translate(63.623047 0)"/>
      </g>
     </g>
    </g>
    <g id="text_13">
     <!-- Evaluation Score -->
     <g transform="translate(18.765312 259.073437) rotate(-90) scale(0.1 -0.1)">
      <defs>
       <path id="DejaVuSans-45" d="M 628 4666 
L 3578 4666 
L 3578 4134 
L 1259 4134 
L 1259 2753 
L 3481 2753 
L 3481 2222 
L 1259 2222 
L 1259 531 
L 3634 531 
L 3634 0 
L 628 0 
L 628 4666 
z
" transform="scale(0.015625)"/>
       <path id="DejaVuSans-61" d="M 2194 1759 
Q 1497 1759 1228 1600 
Q 959 1441 959 1056 
Q 959 750 1161 570 
Q 1363 391 1709 391 
Q 2188 391 2477 730 
Q 2766 1069 2766 1631 
L 2766 1759 
L 2194 1759 
z
M 3341 1997 
L 3341 0 
L 2766 0 
L 2766 531 
Q 2569 213 2275 61 
Q 1981 -91 1556 -91 
Q 1019 -91 701 211 
Q 384 513 384 1019 
Q 384 1609 779 1909 
Q 1175 2209 1959 2209 
L 2766 2209 
L 2766 2266 
Q 2766 2663 2505 2880 
Q 2244 3097 1772 3097 
Q 1472 3097 1187 3025 
Q 903 2953 641 2809 
L 641 3341 
Q 956 3463 1253 3523 
Q 1550 3584 1831 3584 
Q 2591 3584 2966 3190 
Q 3341 2797 3341 1997 
z
" transform="scale(0.015625)"/>
       <path id="DejaVuSans-6c" d="M 603 4863 
L 1178 4863 
L 1178 0 
L 603 0 
L 603 4863 
z
" transform="scale(0.015625)"/>
       <path id="DejaVuSans-75" d="M 544 1381 
L 544 3500 
L 1119 3500 
L 1119 1403 
Q 1119 906 1312 657 
Q 1506 409 1894 409 
Q 2359 409 2629 706 
Q 2900 1003 2900 1516 
L 2900 3500 
L 3475 3500 
L 3475 0 
L 2900 0 
L 2900 538 
Q 2691 219 2414 64 
Q 2138 -91 1772 -91 
Q 1169 -91 856 284 
Q 544 659 544 1381 
z
M 1991 3584 
L 1991 3584 
z
" transform="scale(0.015625)"/>
       <path id="DejaVuSans-74" d="M 1172 4494 
L 1172 3500 
L 2356 3500 
L 2356 3053 
L 1172 3053 
L 1172 1153 
Q 1172 725 1289 603 
Q 1406 481 1766 481 
L 2356 481 
L 2356 0 
L 1766 0 
Q 1100 0 847 248 
Q 594 497 594 1153 
L 594 3053 
L 172 3053 
L 172 3500 
L 594 3500 
L 594 4494 
L 1172 4494 
z
" transform="scale(0.015625)"/>
       <path id="DejaVuSans-69" d="M 603 3500 
L 1178 3500 
L 1178 0 
L 603 0 
L 603 3500 
z
M 603 4863 
L 1178 4863 
L 1178 4134 
L 603 4134 
L 603 4863 
z
" transform="scale(0.015625)"/>
       <path id="DejaVuSans-6e" d="M 3513 2113 
L 3513 0 
L 2938 0 
L 2938 2094 
Q 2938 2591 2744 2837 
Q 2550 3084 2163 3084 
Q 1697 3084 1428 2787 
Q 1159 2491 1159 1978 
L 1159 0 
L 581 0 
L 581 3500 
L 1159 3500 
L 1159 2956 
Q 1366 3272 1645 3428 
Q 1925 3584 2291 3584 
Q 2894 3584 3203 3211 
Q 3513 2838 3513 2113 
z
" transform="scale(0.015625)"/>
       <path id="DejaVuSans-20" transform="scale(0.015625)"/>
       <path id="DejaVuSans-53" d="M 3425 4513 
L 3425 3897 
Q 3066 4069 2747 4153 
Q 2428 4238 2131 4238 
Q 1616 4238 1336 4038 
Q 1056 3838 1056 3469 
Q 1056 3159 1242 3001 
Q 1428 2844 1947 2747 
L 2328 2669 
Q 3034 2534 3370 2195 
Q 3706 1856 3706 1288 
Q 3706 609 3251 259 
Q 2797 -91 1919 -91 
Q 1588 -91 1214 -16 
Q 841 59 441 206 
L 441 856 
Q 825 641 1194 531 
Q 1563 422 1919 422 
Q 2459 422 2753 634 
Q 3047 847 3047 1241 
Q 3047 1584 2836 1778 
Q 2625 1972 2144 2069 
L 1759 2144 
Q 1053 2284 737 2584 
Q 422 2884 422 3419 
Q 422 4038 858 4394 
Q 1294 4750 2059 4750 
Q 2388 4750 2728 4690 
Q 3069 4631 3425 4513 
z
" transform="scale(0.015625)"/>
       <path id="DejaVuSans-63" d="M 3122 3366 
L 3122 2828 
Q 2878 2963 2633 3030 
Q 2388 3097 2138 3097 
Q 1578 3097 1268 2742 
Q 959 2388 959 1747 
Q 959 1106 1268 751 
Q 1578 397 2138 397 
Q 2388 397 2633 464 
Q 2878 531 3122 666 
L 3122 134 
Q 2881 22 2623 -34 
Q 2366 -91 2075 -91 
Q 1284 -91 818 406 
Q 353 903 353 1747 
Q 353 2603 823 3093 
Q 1294 3584 2113 3584 
Q 2378 3584 2631 3529 
Q 2884 3475 3122 3366 
z
" transform="scale(0.015625)"/>
       <path id="DejaVuSans-72" d="M 2631 2963 
Q 2534 3019 2420 3045 
Q 2306 3072 2169 3072 
Q 1681 3072 1420 2755 
Q 1159 2438 1159 1844 
L 1159 0 
L 581 0 
L 581 3500 
L 1159 3500 
L 1159 2956 
Q 1341 3275 1631 3429 
Q 1922 3584 2338 3584 
Q 2397 3584 2469 3576 
Q 2541 3569 2628 3553 
L 2631 2963 
z
" transform="scale(0.015625)"/>
      </defs>
      <use xlink:href="#DejaVuSans-45"/>
      <use xlink:href="#DejaVuSans-76" transform="translate(63.183594 0)"/>
      <use xlink:href="#DejaVuSans-61" transform="translate(122.363281 0)"/>
      <use xlink:href="#DejaVuSans-6c" transform="translate(183.642578 0)"/>
      <use xlink:href="#DejaVuSans-75" transform="translate(211.425781 0)"/>
      <use xlink:href="#DejaVuSans-61" transform="translate(274.804688 0)"/>
      <use xlink:href="#DejaVuSans-74" transform="translate(336.083984 0)"/>
      <use xlink:href="#DejaVuSans-69" transform="translate(375.292969 0)"/>
      <use xlink:href="#DejaVuSans-6f" transform="translate(403.076172 0)"/>
      <use xlink:href="#DejaVuSans-6e" transform="translate(464.257812 0)"/>
      <use xlink:href="#DejaVuSans-20" transform="translate(527.636719 0)"/>
      <use xlink:href="#DejaVuSans-53" transform="translate(559.423828 0)"/>
      <use xlink:href="#DejaVuSans-63" transform="translate(622.900391 0)"/>
      <use xlink:href="#DejaVuSans-6f" transform="translate(677.880859 0)"/>
      <use xlink:href="#DejaVuSans-72" transform="translate(739.0625 0)"/>
      <use xlink:href="#DejaVuSans-65" transform="translate(777.925781 0)"/>
     </g>
    </g>
   </g>
   <g id="line2d_23">
    <path d="M 81.325909 330.44334 
L 89.679525 353.599507 
L 98.03314 363.349471 
L 106.386756 336.537068 
L 114.740372 329.224595 
L 123.093988 353.599507 
L 131.447603 359.693235 
L 139.801219 332.880832 
L 148.154835 319.47463 
L 156.50845 363.349471 
L 164.862066 368.224454 
L 173.215682 315.818393 
L 181.569298 309.724665 
L 189.922913 368.224454 
L 198.276529 369.443199 
L 206.630145 304.849683 
L 214.98376 284.131008 
L 223.337376 367.005708 
L 231.690992 374.318182 
L 240.044607 285.349753 
L 248.398223 258.53735 
L 256.751839 364.568217 
L 265.105455 368.224454 
L 273.45907 268.287315 
L 281.812686 250.006131 
L 290.166302 331.662086 
L 298.519917 323.130867 
L 306.873533 235.381184 
L 315.227149 195.162579 
L 323.580764 287.787245 
L 331.93438 285.349753 
L 340.287996 201.256307 
L 348.641612 182.975123 
L 356.995227 252.443622 
L 365.348843 257.318605 
L 373.702459 181.756378 
L 382.056074 170.787667 
L 390.40969 236.59993 
L 398.763306 237.818675 
L 407.116921 167.131431 
L 415.470537 164.693939 
L 423.824153 242.693658 
L 432.177769 248.787385 
L 440.531384 182.975123 
L 448.885 145.19401 
L 457.238616 200.037562 
L 465.592231 189.068851 
L 473.945847 129.350317 
L 482.299463 115.944116 
L 490.653079 284.131008 
L 499.006694 275.599789 
L 507.36031 165.912685 
L 515.713926 122.037844 
L 524.067541 232.943693 
L 532.421157 251.224877 
L 540.774773 152.506483 
L 549.128388 163.475194 
L 557.482004 203.693798 
L 565.83562 170.787667 
L 574.189236 62.319309 
L 582.542851 80.600493 
L 590.896467 106.194151 
L 599.250083 98.881677 
L 607.603698 63.538055 
L 615.957314 65.975546 
L 624.31093 169.568922 
L 632.664545 170.787667 
L 641.018161 162.256448 
L 649.371777 124.475335 
L 657.725393 204.912544 
L 666.079008 203.693798 
L 674.432624 124.475335 
L 682.78624 106.194151 
L 691.139855 115.944116 
L 699.493471 126.912826 
L 707.847087 81.819239 
L 716.200702 59.881818 
L 724.554318 125.69408 
L 732.907934 135.444045 
L 741.26155 111.069133 
L 749.615165 92.787949 
L 757.968781 128.131572 
L 766.322397 135.444045 
L 774.676012 74.506765 
L 783.029628 102.537914 
L 791.383244 125.69408 
L 799.73686 213.443763 
L 808.090475 123.256589 
L 816.444091 140.319027 
" clip-path="url(#p701cad0fff)" style="fill: none; stroke: #1f77b4; stroke-linecap: square"/>
    <defs>
     <path id="maca7375eb2" d="M 0 3 
C 0.795609 3 1.55874 2.683901 2.12132 2.12132 
C 2.683901 1.55874 3 0.795609 3 0 
C 3 -0.795609 2.683901 -1.55874 2.12132 -2.12132 
C 1.55874 -2.683901 0.795609 -3 0 -3 
C -0.795609 -3 -1.55874 -2.683901 -2.12132 -2.12132 
C -2.683901 -1.55874 -3 -0.795609 -3 0 
C -3 0.795609 -2.683901 1.55874 -2.12132 2.12132 
C -1.55874 2.683901 -0.795609 3 0 3 
z
" style="stroke: #1f77b4"/>
    </defs>
    <g clip-path="url(#p701cad0fff)">
     <use xlink:href="#maca7375eb2" x="81.325909" y="330.44334" style="fill: #1f77b4; stroke: #1f77b4"/>
     <use xlink:href="#maca7375eb2" x="89.679525" y="353.599507" style="fill: #1f77b4; stroke: #1f77b4"/>
     <use xlink:href="#maca7375eb2" x="98.03314" y="363.349471" style="fill: #1f77b4; stroke: #1f77b4"/>
     <use xlink:href="#maca7375eb2" x="106.386756" y="336.537068" style="fill: #1f77b4; stroke: #1f77b4"/>
     <use xlink:href="#maca7375eb2" x="114.740372" y="329.224595" style="fill: #1f77b4; stroke: #1f77b4"/>
     <use xlink:href="#maca7375eb2" x="123.093988" y="353.599507" style="fill: #1f77b4; stroke: #1f77b4"/>
     <use xlink:href="#maca7375eb2" x="131.447603" y="359.693235" style="fill: #1f77b4; stroke: #1f77b4"/>
     <use xlink:href="#maca7375eb2" x="139.801219" y="332.880832" style="fill: #1f77b4; stroke: #1f77b4"/>
     <use xlink:href="#maca7375eb2" x="148.154835" y="319.47463" style="fill: #1f77b4; stroke: #1f77b4"/>
     <use xlink:href="#maca7375eb2" x="156.50845" y="363.349471" style="fill: #1f77b4; stroke: #1f77b4"/>
     <use xlink:href="#maca7375eb2" x="164.862066" y="368.224454" style="fill: #1f77b4; stroke: #1f77b4"/>
     <use xlink:href="#maca7375eb2" x="173.215682" y="315.818393" style="fill: #1f77b4; stroke: #1f77b4"/>
     <use xlink:href="#maca7375eb2" x="181.569298" y="309.724665" style="fill: #1f77b4; stroke: #1f77b4"/>
     <use xlink:href="#maca7375eb2" x="189.922913" y="368.224454" style="fill: #1f77b4; stroke: #1f77b4"/>
     <use xlink:href="#maca7375eb2" x="198.276529" y="369.443199" style="fill: #1f77b4; stroke: #1f77b4"/>
     <use xlink:href="#maca7375eb2" x="206.630145" y="304.849683" style="fill: #1f77b4; stroke: #1f77b4"/>
     <use xlink:href="#maca7375eb2" x="214.98376" y="284.131008" style="fill: #1f77b4; stroke: #1f77b4"/>
     <use xlink:href="#maca7375eb2" x="223.337376" y="367.005708" style="fill: #1f77b4; stroke: #1f77b4"/>
     <use xlink:href="#maca7375eb2" x="231.690992" y="374.318182" style="fill: #1f77b4; stroke: #1f77b4"/>
     <use xlink:href="#maca7375eb2" x="240.044607" y="285.349753" style="fill: #1f77b4; stroke: #1f77b4"/>
     <use xlink:href="#maca7375eb2" x="248.398223" y="258.53735" style="fill: #1f77b4; stroke: #1f77b4"/>
     <use xlink:href="#maca7375eb2" x="256.751839" y="364.568217" style="fill: #1f77b4; stroke: #1f77b4"/>
     <use xlink:href="#maca7375eb2" x="265.105455" y="368.224454" style="fill: #1f77b4; stroke: #1f77b4"/>
     <use xlink:href="#maca7375eb2" x="273.45907" y="268.287315" style="fill: #1f77b4; stroke: #1f77b4"/>
     <use xlink:href="#maca7375eb2" x="281.812686" y="250.006131" style="fill: #1f77b4; stroke: #1f77b4"/>
     <use xlink:href="#maca7375eb2" x="290.166302" y="331.662086" style="fill: #1f77b4; stroke: #1f77b4"/>
     <use xlink:href="#maca7375eb2" x="298.519917" y="323.130867" style="fill: #1f77b4; stroke: #1f77b4"/>
     <use xlink:href="#maca7375eb2" x="306.873533" y="235.381184" style="fill: #1f77b4; stroke: #1f77b4"/>
     <use xlink:href="#maca7375eb2" x="315.227149" y="195.162579" style="fill: #1f77b4; stroke: #1f77b4"/>
     <use xlink:href="#maca7375eb2" x="323.580764" y="287.787245" style="fill: #1f77b4; stroke: #1f77b4"/>
     <use xlink:href="#maca7375eb2" x="331.93438" y="285.349753" style="fill: #1f77b4; stroke: #1f77b4"/>
     <use xlink:href="#maca7375eb2" x="340.287996" y="201.256307" style="fill: #1f77b4; stroke: #1f77b4"/>
     <use xlink:href="#maca7375eb2" x="348.641612" y="182.975123" style="fill: #1f77b4; stroke: #1f77b4"/>
     <use xlink:href="#maca7375eb2" x="356.995227" y="252.443622" style="fill: #1f77b4; stroke: #1f77b4"/>
     <use xlink:href="#maca7375eb2" x="365.348843" y="257.318605" style="fill: #1f77b4; stroke: #1f77b4"/>
     <use xlink:href="#maca7375eb2" x="373.702459" y="181.756378" style="fill: #1f77b4; stroke: #1f77b4"/>
     <use xlink:href="#maca7375eb2" x="382.056074" y="170.787667" style="fill: #1f77b4; stroke: #1f77b4"/>
     <use xlink:href="#maca7375eb2" x="390.40969" y="236.59993" style="fill: #1f77b4; stroke: #1f77b4"/>
     <use xlink:href="#maca7375eb2" x="398.763306" y="237.818675" style="fill: #1f77b4; stroke: #1f77b4"/>
     <use xlink:href="#maca7375eb2" x="407.116921" y="167.131431" style="fill: #1f77b4; stroke: #1f77b4"/>
     <use xlink:href="#maca7375eb2" x="415.470537" y="164.693939" style="fill: #1f77b4; stroke: #1f77b4"/>
     <use xlink:href="#maca7375eb2" x="423.824153" y="242.693658" style="fill: #1f77b4; stroke: #1f77b4"/>
     <use xlink:href="#maca7375eb2" x="432.177769" y="248.787385" style="fill: #1f77b4; stroke: #1f77b4"/>
     <use xlink:href="#maca7375eb2" x="440.531384" y="182.975123" style="fill: #1f77b4; stroke: #1f77b4"/>
     <use xlink:href="#maca7375eb2" x="448.885" y="145.19401" style="fill: #1f77b4; stroke: #1f77b4"/>
     <use xlink:href="#maca7375eb2" x="457.238616" y="200.037562" style="fill: #1f77b4; stroke: #1f77b4"/>
     <use xlink:href="#maca7375eb2" x="465.592231" y="189.068851" style="fill: #1f77b4; stroke: #1f77b4"/>
     <use xlink:href="#maca7375eb2" x="473.945847" y="129.350317" style="fill: #1f77b4; stroke: #1f77b4"/>
     <use xlink:href="#maca7375eb2" x="482.299463" y="115.944116" style="fill: #1f77b4; stroke: #1f77b4"/>
     <use xlink:href="#maca7375eb2" x="490.653079" y="284.131008" style="fill: #1f77b4; stroke: #1f77b4"/>
     <use xlink:href="#maca7375eb2" x="499.006694" y="275.599789" style="fill: #1f77b4; stroke: #1f77b4"/>
     <use xlink:href="#maca7375eb2" x="507.36031" y="165.912685" style="fill: #1f77b4; stroke: #1f77b4"/>
     <use xlink:href="#maca7375eb2" x="515.713926" y="122.037844" style="fill: #1f77b4; stroke: #1f77b4"/>
     <use xlink:href="#maca7375eb2" x="524.067541" y="232.943693" style="fill: #1f77b4; stroke: #1f77b4"/>
     <use xlink:href="#maca7375eb2" x="532.421157" y="251.224877" style="fill: #1f77b4; stroke: #1f77b4"/>
     <use xlink:href="#maca7375eb2" x="540.774773" y="152.506483" style="fill: #1f77b4; stroke: #1f77b4"/>
     <use xlink:href="#maca7375eb2" x="549.128388" y="163.475194" style="fill: #1f77b4; stroke: #1f77b4"/>
     <use xlink:href="#maca7375eb2" x="557.482004" y="203.693798" style="fill: #1f77b4; stroke: #1f77b4"/>
     <use xlink:href="#maca7375eb2" x="565.83562" y="170.787667" style="fill: #1f77b4; stroke: #1f77b4"/>
     <use xlink:href="#maca7375eb2" x="574.189236" y="62.319309" style="fill: #1f77b4; stroke: #1f77b4"/>
     <use xlink:href="#maca7375eb2" x="582.542851" y="80.600493" style="fill: #1f77b4; stroke: #1f77b4"/>
     <use xlink:href="#maca7375eb2" x="590.896467" y="106.194151" style="fill: #1f77b4; stroke: #1f77b4"/>
     <use xlink:href="#maca7375eb2" x="599.250083" y="98.881677" style="fill: #1f77b4; stroke: #1f77b4"/>
     <use xlink:href="#maca7375eb2" x="607.603698" y="63.538055" style="fill: #1f77b4; stroke: #1f77b4"/>
     <use xlink:href="#maca7375eb2" x="615.957314" y="65.975546" style="fill: #1f77b4; stroke: #1f77b4"/>
     <use xlink:href="#maca7375eb2" x="624.31093" y="169.568922" style="fill: #1f77b4; stroke: #1f77b4"/>
     <use xlink:href="#maca7375eb2" x="632.664545" y="170.787667" style="fill: #1f77b4; stroke: #1f77b4"/>
     <use xlink:href="#maca7375eb2" x="641.018161" y="162.256448" style="fill: #1f77b4; stroke: #1f77b4"/>
     <use xlink:href="#maca7375eb2" x="649.371777" y="124.475335" style="fill: #1f77b4; stroke: #1f77b4"/>
     <use xlink:href="#maca7375eb2" x="657.725393" y="204.912544" style="fill: #1f77b4; stroke: #1f77b4"/>
     <use xlink:href="#maca7375eb2" x="666.079008" y="203.693798" style="fill: #1f77b4; stroke: #1f77b4"/>
     <use xlink:href="#maca7375eb2" x="674.432624" y="124.475335" style="fill: #1f77b4; stroke: #1f77b4"/>
     <use xlink:href="#maca7375eb2" x="682.78624" y="106.194151" style="fill: #1f77b4; stroke: #1f77b4"/>
     <use xlink:href="#maca7375eb2" x="691.139855" y="115.944116" style="fill: #1f77b4; stroke: #1f77b4"/>
     <use xlink:href="#maca7375eb2" x="699.493471" y="126.912826" style="fill: #1f77b4; stroke: #1f77b4"/>
     <use xlink:href="#maca7375eb2" x="707.847087" y="81.819239" style="fill: #1f77b4; stroke: #1f77b4"/>
     <use xlink:href="#maca7375eb2" x="716.200702" y="59.881818" style="fill: #1f77b4; stroke: #1f77b4"/>
     <use xlink:href="#maca7375eb2" x="724.554318" y="125.69408" style="fill: #1f77b4; stroke: #1f77b4"/>
     <use xlink:href="#maca7375eb2" x="732.907934" y="135.444045" style="fill: #1f77b4; stroke: #1f77b4"/>
     <use xlink:href="#maca7375eb2" x="741.26155" y="111.069133" style="fill: #1f77b4; stroke: #1f77b4"/>
     <use xlink:href="#maca7375eb2" x="749.615165" y="92.787949" style="fill: #1f77b4; stroke: #1f77b4"/>
     <use xlink:href="#maca7375eb2" x="757.968781" y="128.131572" style="fill: #1f77b4; stroke: #1f77b4"/>
     <use xlink:href="#maca7375eb2" x="766.322397" y="135.444045" style="fill: #1f77b4; stroke: #1f77b4"/>
     <use xlink:href="#maca7375eb2" x="774.676012" y="74.506765" style="fill: #1f77b4; stroke: #1f77b4"/>
     <use xlink:href="#maca7375eb2" x="783.029628" y="102.537914" style="fill: #1f77b4; stroke: #1f77b4"/>
     <use xlink:href="#maca7375eb2" x="791.383244" y="125.69408" style="fill: #1f77b4; stroke: #1f77b4"/>
     <use xlink:href="#maca7375eb2" x="799.73686" y="213.443763" style="fill: #1f77b4; stroke: #1f77b4"/>
     <use xlink:href="#maca7375eb2" x="808.090475" y="123.256589" style="fill: #1f77b4; stroke: #1f77b4"/>
     <use xlink:href="#maca7375eb2" x="816.444091" y="140.319027" style="fill: #1f77b4; stroke: #1f77b4"/>
    </g>
   </g>
   <g id="patch_3">
    <path d="M 44.57 390.04 
L 44.57 44.16 
" style="fill: none; stroke: #000000; stroke-width: 0.8; stroke-linejoin: miter; stroke-linecap: square"/>
   </g>
   <g id="patch_4">
    <path d="M 853.2 390.04 
L 853.2 44.16 
" style="fill: none; stroke: #000000; stroke-width: 0.8; stroke-linejoin: miter; stroke-linecap: square"/>
   </g>
   <g id="patch_5">
    <path d="M 44.57 390.04 
L 853.2 390.04 
" style="fill: none; stroke: #000000; stroke-width: 0.8; stroke-linejoin: miter; stroke-linecap: square"/>
   </g>
   <g id="patch_6">
    <path d="M 44.57 44.16 
L 853.2 44.16 
" style="fill: none; stroke: #000000; stroke-width: 0.8; stroke-linejoin: miter; stroke-linecap: square"/>
   </g>
   <g id="text_14">
    <g id="patch_7">
     <path d="M 52.6563 66.811813 
L 232.179737 66.811813 
Q 235.179737 66.811813 235.179737 63.811813 
L 235.179737 42.379625 
Q 235.179737 39.379625 232.179737 39.379625 
L 52.6563 39.379625 
Q 49.6563 39.379625 49.6563 42.379625 
L 49.6563 63.811813 
Q 49.6563 66.811813 52.6563 66.811813 
z
" style="fill: #ffffff; opacity: 0.7; stroke: #000000; stroke-linejoin: miter"/>
    </g>
    <!-- White(ai_handcraft) Winrate: 97.0% -->
    <g transform="translate(52.6563 49.978063) scale(0.1 -0.1)">
     <defs>
      <path id="DejaVuSans-57" d="M 213 4666 
L 850 4666 
L 1831 722 
L 2809 4666 
L 3519 4666 
L 4500 722 
L 5478 4666 
L 6119 4666 
L 4947 0 
L 4153 0 
L 3169 4050 
L 2175 0 
L 1381 0 
L 213 4666 
z
" transform="scale(0.015625)"/>
      <path id="DejaVuSans-68" d="M 3513 2113 
L 3513 0 
L 2938 0 
L 2938 2094 
Q 2938 2591 2744 2837 
Q 2550 3084 2163 3084 
Q 1697 3084 1428 2787 
Q 1159 2491 1159 1978 
L 1159 0 
L 581 0 
L 581 4863 
L 1159 4863 
L 1159 2956 
Q 1366 3272 1645 3428 
Q 1925 3584 2291 3584 
Q 2894 3584 3203 3211 
Q 3513 2838 3513 2113 
z
" transform="scale(0.015625)"/>
      <path id="DejaVuSans-28" d="M 1984 4856 
Q 1566 4138 1362 3434 
Q 1159 2731 1159 2009 
Q 1159 1288 1364 580 
Q 1569 -128 1984 -844 
L 1484 -844 
Q 1016 -109 783 600 
Q 550 1309 550 2009 
Q 550 2706 781 3412 
Q 1013 4119 1484 4856 
L 1984 4856 
z
" transform="scale(0.015625)"/>
      <path id="DejaVuSans-5f" d="M 3263 -1063 
L 3263 -1509 
L -63 -1509 
L -63 -1063 
L 3263 -1063 
z
" transform="scale(0.015625)"/>
      <path id="DejaVuSans-64" d="M 2906 2969 
L 2906 4863 
L 3481 4863 
L 3481 0 
L 2906 0 
L 2906 525 
Q 2725 213 2448 61 
Q 2172 -91 1784 -91 
Q 1150 -91 751 415 
Q 353 922 353 1747 
Q 353 2572 751 3078 
Q 1150 3584 1784 3584 
Q 2172 3584 2448 3432 
Q 2725 3281 2906 2969 
z
M 947 1747 
Q 947 1113 1208 752 
Q 1469 391 1925 391 
Q 2381 391 2643 752 
Q 2906 1113 2906 1747 
Q 2906 2381 2643 2742 
Q 2381 3103 1925 3103 
Q 1469 3103 1208 2742 
Q 947 2381 947 1747 
z
" transform="scale(0.015625)"/>
      <path id="DejaVuSans-66" d="M 2375 4863 
L 2375 4384 
L 1825 4384 
Q 1516 4384 1395 4259 
Q 1275 4134 1275 3809 
L 1275 3500 
L 2222 3500 
L 2222 3053 
L 1275 3053 
L 1275 0 
L 697 0 
L 697 3053 
L 147 3053 
L 147 3500 
L 697 3500 
L 697 3744 
Q 697 4328 969 4595 
Q 1241 4863 1831 4863 
L 2375 4863 
z
" transform="scale(0.015625)"/>
      <path id="DejaVuSans-29" d="M 513 4856 
L 1013 4856 
Q 1481 4119 1714 3412 
Q 1947 2706 1947 2009 
Q 1947 1309 1714 600 
Q 1481 -109 1013 -844 
L 513 -844 
Q 928 -128 1133 580 
Q 1338 1288 1338 2009 
Q 1338 2731 1133 3434 
Q 928 4138 513 4856 
z
" transform="scale(0.015625)"/>
      <path id="DejaVuSans-3a" d="M 750 794 
L 1409 794 
L 1409 0 
L 750 0 
L 750 794 
z
M 750 3309 
L 1409 3309 
L 1409 2516 
L 750 2516 
L 750 3309 
z
" transform="scale(0.015625)"/>
      <path id="DejaVuSans-39" d="M 703 97 
L 703 672 
Q 941 559 1184 500 
Q 1428 441 1663 441 
Q 2288 441 2617 861 
Q 2947 1281 2994 2138 
Q 2813 1869 2534 1725 
Q 2256 1581 1919 1581 
Q 1219 1581 811 2004 
Q 403 2428 403 3163 
Q 403 3881 828 4315 
Q 1253 4750 1959 4750 
Q 2769 4750 3195 4129 
Q 3622 3509 3622 2328 
Q 3622 1225 3098 567 
Q 2575 -91 1691 -91 
Q 1453 -91 1209 -44 
Q 966 3 703 97 
z
M 1959 2075 
Q 2384 2075 2632 2365 
Q 2881 2656 2881 3163 
Q 2881 3666 2632 3958 
Q 2384 4250 1959 4250 
Q 1534 4250 1286 3958 
Q 1038 3666 1038 3163 
Q 1038 2656 1286 2365 
Q 1534 2075 1959 2075 
z
" transform="scale(0.015625)"/>
      <path id="DejaVuSans-37" d="M 525 4666 
L 3525 4666 
L 3525 4397 
L 1831 0 
L 1172 0 
L 2766 4134 
L 525 4134 
L 525 4666 
z
" transform="scale(0.015625)"/>
      <path id="DejaVuSans-2e" d="M 684 794 
L 1344 794 
L 1344 0 
L 684 0 
L 684 794 
z
" transform="scale(0.015625)"/>
      <path id="DejaVuSans-25" d="M 4653 2053 
Q 4381 2053 4226 1822 
Q 4072 1591 4072 1178 
Q 4072 772 4226 539 
Q 4381 306 4653 306 
Q 4919 306 5073 539 
Q 5228 772 5228 1178 
Q 5228 1588 5073 1820 
Q 4919 2053 4653 2053 
z
M 4653 2450 
Q 5147 2450 5437 2106 
Q 5728 1763 5728 1178 
Q 5728 594 5436 251 
Q 5144 -91 4653 -91 
Q 4153 -91 3862 251 
Q 3572 594 3572 1178 
Q 3572 1766 3864 2108 
Q 4156 2450 4653 2450 
z
M 1428 4353 
Q 1159 4353 1004 4120 
Q 850 3888 850 3481 
Q 850 3069 1003 2837 
Q 1156 2606 1428 2606 
Q 1700 2606 1854 2837 
Q 2009 3069 2009 3481 
Q 2009 3884 1853 4118 
Q 1697 4353 1428 4353 
z
M 4250 4750 
L 4750 4750 
L 1831 -91 
L 1331 -91 
L 4250 4750 
z
M 1428 4750 
Q 1922 4750 2215 4408 
Q 2509 4066 2509 3481 
Q 2509 2891 2217 2550 
Q 1925 2209 1428 2209 
Q 931 2209 642 2551 
Q 353 2894 353 3481 
Q 353 4063 643 4406 
Q 934 4750 1428 4750 
z
" transform="scale(0.015625)"/>
     </defs>
     <use xlink:href="#DejaVuSans-57"/>
     <use xlink:href="#DejaVuSans-68" transform="translate(98.876953 0)"/>
     <use xlink:href="#DejaVuSans-69" transform="translate(162.255859 0)"/>
     <use xlink:href="#DejaVuSans-74" transform="translate(190.039062 0)"/>
     <use xlink:href="#DejaVuSans-65" transform="translate(229.248047 0)"/>
     <use xlink:href="#DejaVuSans-28" transform="translate(290.771484 0)"/>
     <use xlink:href="#DejaVuSans-61" transform="translate(329.785156 0)"/>
     <use xlink:href="#DejaVuSans-69" transform="translate(391.064453 0)"/>
     <use xlink:href="#DejaVuSans-5f" transform="translate(418.847656 0)"/>
     <use xlink:href="#DejaVuSans-68" transform="translate(468.847656 0)"/>
     <use xlink:href="#DejaVuSans-61" transform="translate(532.226562 0)"/>
     <use xlink:href="#DejaVuSans-6e" transform="translate(593.505859 0)"/>
     <use xlink:href="#DejaVuSans-64" transform="translate(656.884766 0)"/>
     <use xlink:href="#DejaVuSans-63" transform="translate(720.361328 0)"/>
     <use xlink:href="#DejaVuSans-72" transform="translate(775.341797 0)"/>
     <use xlink:href="#DejaVuSans-61" transform="translate(816.455078 0)"/>
     <use xlink:href="#DejaVuSans-66" transform="translate(877.734375 0)"/>
     <use xlink:href="#DejaVuSans-74" transform="translate(911.189453 0)"/>
     <use xlink:href="#DejaVuSans-29" transform="translate(950.398438 0)"/>
     <use xlink:href="#DejaVuSans-20" transform="translate(989.412109 0)"/>
     <use xlink:href="#DejaVuSans-57" transform="translate(1021.199219 0)"/>
     <use xlink:href="#DejaVuSans-69" transform="translate(1117.826172 0)"/>
     <use xlink:href="#DejaVuSans-6e" transform="translate(1145.609375 0)"/>
     <use xlink:href="#DejaVuSans-72" transform="translate(1208.988281 0)"/>
     <use xlink:href="#DejaVuSans-61" transform="translate(1250.101562 0)"/>
     <use xlink:href="#DejaVuSans-74" transform="translate(1311.380859 0)"/>
     <use xlink:href="#DejaVuSans-65" transform="translate(1350.589844 0)"/>
     <use xlink:href="#DejaVuSans-3a" transform="translate(1412.113281 0)"/>
     <use xlink:href="#DejaVuSans-20" transform="translate(1445.804688 0)"/>
     <use xlink:href="#DejaVuSans-39" transform="translate(1477.591797 0)"/>
     <use xlink:href="#DejaVuSans-37" transform="translate(1541.214844 0)"/>
     <use xlink:href="#DejaVuSans-2e" transform="translate(1604.837891 0)"/>
     <use xlink:href="#DejaVuSans-30" transform="translate(1636.625 0)"/>
     <use xlink:href="#DejaVuSans-25" transform="translate(1700.248047 0)"/>
    </g>
    <!-- Black(ai_random) Winrate: 3.0% -->
    <g transform="translate(52.6563 61.454) scale(0.1 -0.1)">
     <defs>
      <path id="DejaVuSans-42" d="M 1259 2228 
L 1259 519 
L 2272 519 
Q 2781 519 3026 730 
Q 3272 941 3272 1375 
Q 3272 1813 3026 2020 
Q 2781 2228 2272 2228 
L 1259 2228 
z
M 1259 4147 
L 1259 2741 
L 2194 2741 
Q 2656 2741 2882 2914 
Q 3109 3088 3109 3444 
Q 3109 3797 2882 3972 
Q 2656 4147 2194 4147 
L 1259 4147 
z
M 628 4666 
L 2241 4666 
Q 2963 4666 3353 4366 
Q 3744 4066 3744 3513 
Q 3744 3084 3544 2831 
Q 3344 2578 2956 2516 
Q 3422 2416 3680 2098 
Q 3938 1781 3938 1306 
Q 3938 681 3513 340 
Q 3088 0 2303 0 
L 628 0 
L 628 4666 
z
" transform="scale(0.015625)"/>
      <path id="DejaVuSans-6b" d="M 581 4863 
L 1159 4863 
L 1159 1991 
L 2875 3500 
L 3609 3500 
L 1753 1863 
L 3688 0 
L 2938 0 
L 1159 1709 
L 1159 0 
L 581 0 
L 581 4863 
z
" transform="scale(0.015625)"/>
      <path id="DejaVuSans-6d" d="M 3328 2828 
Q 3544 3216 3844 3400 
Q 4144 3584 4550 3584 
Q 5097 3584 5394 3201 
Q 5691 2819 5691 2113 
L 5691 0 
L 5113 0 
L 5113 2094 
Q 5113 2597 4934 2840 
Q 4756 3084 4391 3084 
Q 3944 3084 3684 2787 
Q 3425 2491 3425 1978 
L 3425 0 
L 2847 0 
L 2847 2094 
Q 2847 2600 2669 2842 
Q 2491 3084 2119 3084 
Q 1678 3084 1418 2786 
Q 1159 2488 1159 1978 
L 1159 0 
L 581 0 
L 581 3500 
L 1159 3500 
L 1159 2956 
Q 1356 3278 1631 3431 
Q 1906 3584 2284 3584 
Q 2666 3584 2933 3390 
Q 3200 3197 3328 2828 
z
" transform="scale(0.015625)"/>
      <path id="DejaVuSans-33" d="M 2597 2516 
Q 3050 2419 3304 2112 
Q 3559 1806 3559 1356 
Q 3559 666 3084 287 
Q 2609 -91 1734 -91 
Q 1441 -91 1130 -33 
Q 819 25 488 141 
L 488 750 
Q 750 597 1062 519 
Q 1375 441 1716 441 
Q 2309 441 2620 675 
Q 2931 909 2931 1356 
Q 2931 1769 2642 2001 
Q 2353 2234 1838 2234 
L 1294 2234 
L 1294 2753 
L 1863 2753 
Q 2328 2753 2575 2939 
Q 2822 3125 2822 3475 
Q 2822 3834 2567 4026 
Q 2313 4219 1838 4219 
Q 1578 4219 1281 4162 
Q 984 4106 628 3988 
L 628 4550 
Q 988 4650 1302 4700 
Q 1616 4750 1894 4750 
Q 2613 4750 3031 4423 
Q 3450 4097 3450 3541 
Q 3450 3153 3228 2886 
Q 3006 2619 2597 2516 
z
" transform="scale(0.015625)"/>
     </defs>
     <use xlink:href="#DejaVuSans-42"/>
     <use xlink:href="#DejaVuSans-6c" transform="translate(68.603516 0)"/>
     <use xlink:href="#DejaVuSans-61" transform="translate(96.386719 0)"/>
     <use xlink:href="#DejaVuSans-63" transform="translate(157.666016 0)"/>
     <use xlink:href="#DejaVuSans-6b" transform="translate(212.646484 0)"/>
     <use xlink:href="#DejaVuSans-28" transform="translate(270.556641 0)"/>
     <use xlink:href="#DejaVuSans-61" transform="translate(309.570312 0)"/>
     <use xlink:href="#DejaVuSans-69" transform="translate(370.849609 0)"/>
     <use xlink:href="#DejaVuSans-5f" transform="translate(398.632812 0)"/>
     <use xlink:href="#DejaVuSans-72" transform="translate(448.632812 0)"/>
     <use xlink:href="#DejaVuSans-61" transform="translate(489.746094 0)"/>
     <use xlink:href="#DejaVuSans-6e" transform="translate(551.025391 0)"/>
     <use xlink:href="#DejaVuSans-64" transform="translate(614.404297 0)"/>
     <use xlink:href="#DejaVuSans-6f" transform="translate(677.880859 0)"/>
     <use xlink:href="#DejaVuSans-6d" transform="translate(739.0625 0)"/>
     <use xlink:href="#DejaVuSans-29" transform="translate(836.474609 0)"/>
     <use xlink:href="#DejaVuSans-20" transform="translate(875.488281 0)"/>
     <use xlink:href="#DejaVuSans-57" transform="translate(907.275391 0)"/>
     <use xlink:href="#DejaVuSans-69" transform="translate(1003.902344 0)"/>
     <use xlink:href="#DejaVuSans-6e" transform="translate(1031.685547 0)"/>
     <use xlink:href="#DejaVuSans-72" transform="translate(1095.064453 0)"/>
     <use xlink:href="#DejaVuSans-61" transform="translate(1136.177734 0)"/>
     <use xlink:href="#DejaVuSans-74" transform="translate(1197.457031 0)"/>
     <use xlink:href="#DejaVuSans-65" transform="translate(1236.666016 0)"/>
     <use xlink:href="#DejaVuSans-3a" transform="translate(1298.189453 0)"/>
     <use xlink:href="#DejaVuSans-20" transform="translate(1331.880859 0)"/>
     <use xlink:href="#DejaVuSans-33" transform="translate(1363.667969 0)"/>
     <use xlink:href="#DejaVuSans-2e" transform="translate(1427.291016 0)"/>
     <use xlink:href="#DejaVuSans-30" transform="translate(1459.078125 0)"/>
     <use xlink:href="#DejaVuSans-25" transform="translate(1522.701172 0)"/>
    </g>
   </g>
   <g id="text_15">
    <!-- Step-wise Averages White ai_handcraft vs Black ai_random -->
    <g transform="translate(241.647812 22.093687) scale(0.14 -0.14)">
     <defs>
      <path id="DejaVuSans-70" d="M 1159 525 
L 1159 -1331 
L 581 -1331 
L 581 3500 
L 1159 3500 
L 1159 2969 
Q 1341 3281 1617 3432 
Q 1894 3584 2278 3584 
Q 2916 3584 3314 3078 
Q 3713 2572 3713 1747 
Q 3713 922 3314 415 
Q 2916 -91 2278 -91 
Q 1894 -91 1617 61 
Q 1341 213 1159 525 
z
M 3116 1747 
Q 3116 2381 2855 2742 
Q 2594 3103 2138 3103 
Q 1681 3103 1420 2742 
Q 1159 2381 1159 1747 
Q 1159 1113 1420 752 
Q 1681 391 2138 391 
Q 2594 391 2855 752 
Q 3116 1113 3116 1747 
z
" transform="scale(0.015625)"/>
      <path id="DejaVuSans-2d" d="M 313 2009 
L 1997 2009 
L 1997 1497 
L 313 1497 
L 313 2009 
z
" transform="scale(0.015625)"/>
      <path id="DejaVuSans-77" d="M 269 3500 
L 844 3500 
L 1563 769 
L 2278 3500 
L 2956 3500 
L 3675 769 
L 4391 3500 
L 4966 3500 
L 4050 0 
L 3372 0 
L 2619 2869 
L 1863 0 
L 1184 0 
L 269 3500 
z
" transform="scale(0.015625)"/>
      <path id="DejaVuSans-73" d="M 2834 3397 
L 2834 2853 
Q 2591 2978 2328 3040 
Q 2066 3103 1784 3103 
Q 1356 3103 1142 2972 
Q 928 2841 928 2578 
Q 928 2378 1081 2264 
Q 1234 2150 1697 2047 
L 1894 2003 
Q 2506 1872 2764 1633 
Q 3022 1394 3022 966 
Q 3022 478 2636 193 
Q 2250 -91 1575 -91 
Q 1294 -91 989 -36 
Q 684 19 347 128 
L 347 722 
Q 666 556 975 473 
Q 1284 391 1588 391 
Q 1994 391 2212 530 
Q 2431 669 2431 922 
Q 2431 1156 2273 1281 
Q 2116 1406 1581 1522 
L 1381 1569 
Q 847 1681 609 1914 
Q 372 2147 372 2553 
Q 372 3047 722 3315 
Q 1072 3584 1716 3584 
Q 2034 3584 2315 3537 
Q 2597 3491 2834 3397 
z
" transform="scale(0.015625)"/>
      <path id="DejaVuSans-41" d="M 2188 4044 
L 1331 1722 
L 3047 1722 
L 2188 4044 
z
M 1831 4666 
L 2547 4666 
L 4325 0 
L 3669 0 
L 3244 1197 
L 1141 1197 
L 716 0 
L 50 0 
L 1831 4666 
z
" transform="scale(0.015625)"/>
      <path id="DejaVuSans-67" d="M 2906 1791 
Q 2906 2416 2648 2759 
Q 2391 3103 1925 3103 
Q 1463 3103 1205 2759 
Q 947 2416 947 1791 
Q 947 1169 1205 825 
Q 1463 481 1925 481 
Q 2391 481 2648 825 
Q 2906 1169 2906 1791 
z
M 3481 434 
Q 3481 -459 3084 -895 
Q 2688 -1331 1869 -1331 
Q 1566 -1331 1297 -1286 
Q 1028 -1241 775 -1147 
L 775 -588 
Q 1028 -725 1275 -790 
Q 1522 -856 1778 -856 
Q 2344 -856 2625 -561 
Q 2906 -266 2906 331 
L 2906 616 
Q 2728 306 2450 153 
Q 2172 0 1784 0 
Q 1141 0 747 490 
Q 353 981 353 1791 
Q 353 2603 747 3093 
Q 1141 3584 1784 3584 
Q 2172 3584 2450 3431 
Q 2728 3278 2906 2969 
L 2906 3500 
L 3481 3500 
L 3481 434 
z
" transform="scale(0.015625)"/>
     </defs>
     <use xlink:href="#DejaVuSans-53"/>
     <use xlink:href="#DejaVuSans-74" transform="translate(63.476562 0)"/>
     <use xlink:href="#DejaVuSans-65" transform="translate(102.685547 0)"/>
     <use xlink:href="#DejaVuSans-70" transform="translate(164.208984 0)"/>
     <use xlink:href="#DejaVuSans-2d" transform="translate(227.685547 0)"/>
     <use xlink:href="#DejaVuSans-77" transform="translate(263.769531 0)"/>
     <use xlink:href="#DejaVuSans-69" transform="translate(345.556641 0)"/>
     <use xlink:href="#DejaVuSans-73" transform="translate(373.339844 0)"/>
     <use xlink:href="#DejaVuSans-65" transform="translate(425.439453 0)"/>
     <use xlink:href="#DejaVuSans-20" transform="translate(486.962891 0)"/>
     <use xlink:href="#DejaVuSans-41" transform="translate(518.75 0)"/>
     <use xlink:href="#DejaVuSans-76" transform="translate(581.283203 0)"/>
     <use xlink:href="#DejaVuSans-65" transform="translate(640.462891 0)"/>
     <use xlink:href="#DejaVuSans-72" transform="translate(701.986328 0)"/>
     <use xlink:href="#DejaVuSans-61" transform="translate(743.099609 0)"/>
     <use xlink:href="#DejaVuSans-67" transform="translate(804.378906 0)"/>
     <use xlink:href="#DejaVuSans-65" transform="translate(867.855469 0)"/>
     <use xlink:href="#DejaVuSans-73" transform="translate(929.378906 0)"/>
     <use xlink:href="#DejaVuSans-20" transform="translate(981.478516 0)"/>
     <use xlink:href="#DejaVuSans-57" transform="translate(1013.265625 0)"/>
     <use xlink:href="#DejaVuSans-68" transform="translate(1112.142578 0)"/>
     <use xlink:href="#DejaVuSans-69" transform="translate(1175.521484 0)"/>
     <use xlink:href="#DejaVuSans-74" transform="translate(1203.304688 0)"/>
     <use xlink:href="#DejaVuSans-65" transform="translate(1242.513672 0)"/>
     <use xlink:href="#DejaVuSans-20" transform="translate(1304.037109 0)"/>
     <use xlink:href="#DejaVuSans-61" transform="translate(1335.824219 0)"/>
     <use xlink:href="#DejaVuSans-69" transform="translate(1397.103516 0)"/>
     <use xlink:href="#DejaVuSans-5f" transform="translate(1424.886719 0)"/>
     <use xlink:href="#DejaVuSans-68" transform="translate(1474.886719 0)"/>
     <use xlink:href="#DejaVuSans-61" transform="translate(1538.265625 0)"/>
     <use xlink:href="#DejaVuSans-6e" transform="translate(1599.544922 0)"/>
     <use xlink:href="#DejaVuSans-64" transform="translate(1662.923828 0)"/>
     <use xlink:href="#DejaVuSans-63" transform="translate(1726.400391 0)"/>
     <use xlink:href="#DejaVuSans-72" transform="translate(1781.380859 0)"/>
     <use xlink:href="#DejaVuSans-61" transform="translate(1822.494141 0)"/>
     <use xlink:href="#DejaVuSans-66" transform="translate(1883.773438 0)"/>
     <use xlink:href="#DejaVuSans-74" transform="translate(1917.228516 0)"/>
     <use xlink:href="#DejaVuSans-20" transform="translate(1956.4375 0)"/>
     <use xlink:href="#DejaVuSans-76" transform="translate(1988.224609 0)"/>
     <use xlink:href="#DejaVuSans-73" transform="translate(2047.404297 0)"/>
     <use xlink:href="#DejaVuSans-20" transform="translate(2099.503906 0)"/>
     <use xlink:href="#DejaVuSans-42" transform="translate(2131.291016 0)"/>
     <use xlink:href="#DejaVuSans-6c" transform="translate(2199.894531 0)"/>
     <use xlink:href="#DejaVuSans-61" transform="translate(2227.677734 0)"/>
     <use xlink:href="#DejaVuSans-63" transform="translate(2288.957031 0)"/>
     <use xlink:href="#DejaVuSans-6b" transform="translate(2343.9375 0)"/>
     <use xlink:href="#DejaVuSans-20" transform="translate(2401.847656 0)"/>
     <use xlink:href="#DejaVuSans-61" transform="translate(2433.634766 0)"/>
     <use xlink:href="#DejaVuSans-69" transform="translate(2494.914062 0)"/>
     <use xlink:href="#DejaVuSans-5f" transform="translate(2522.697266 0)"/>
     <use xlink:href="#DejaVuSans-72" transform="translate(2572.697266 0)"/>
     <use xlink:href="#DejaVuSans-61" transform="translate(2613.810547 0)"/>
     <use xlink:href="#DejaVuSans-6e" transform="translate(2675.089844 0)"/>
     <use xlink:href="#DejaVuSans-64" transform="translate(2738.46875 0)"/>
     <use xlink:href="#DejaVuSans-6f" transform="translate(2801.945312 0)"/>
     <use xlink:href="#DejaVuSans-6d" transform="translate(2863.126953 0)"/>
    </g>
    <!-- The more positive, the better to White (ai_handcraft) -->
    <g transform="translate(263.284375 38.16) scale(0.14 -0.14)">
     <defs>
      <path id="DejaVuSans-54" d="M -19 4666 
L 3928 4666 
L 3928 4134 
L 2272 4134 
L 2272 0 
L 1638 0 
L 1638 4134 
L -19 4134 
L -19 4666 
z
" transform="scale(0.015625)"/>
      <path id="DejaVuSans-2c" d="M 750 794 
L 1409 794 
L 1409 256 
L 897 -744 
L 494 -744 
L 750 256 
L 750 794 
z
" transform="scale(0.015625)"/>
      <path id="DejaVuSans-62" d="M 3116 1747 
Q 3116 2381 2855 2742 
Q 2594 3103 2138 3103 
Q 1681 3103 1420 2742 
Q 1159 2381 1159 1747 
Q 1159 1113 1420 752 
Q 1681 391 2138 391 
Q 2594 391 2855 752 
Q 3116 1113 3116 1747 
z
M 1159 2969 
Q 1341 3281 1617 3432 
Q 1894 3584 2278 3584 
Q 2916 3584 3314 3078 
Q 3713 2572 3713 1747 
Q 3713 922 3314 415 
Q 2916 -91 2278 -91 
Q 1894 -91 1617 61 
Q 1341 213 1159 525 
L 1159 0 
L 581 0 
L 581 4863 
L 1159 4863 
L 1159 2969 
z
" transform="scale(0.015625)"/>
     </defs>
     <use xlink:href="#DejaVuSans-54"/>
     <use xlink:href="#DejaVuSans-68" transform="translate(61.083984 0)"/>
     <use xlink:href="#DejaVuSans-65" transform="translate(124.462891 0)"/>
     <use xlink:href="#DejaVuSans-20" transform="translate(185.986328 0)"/>
     <use xlink:href="#DejaVuSans-6d" transform="translate(217.773438 0)"/>
     <use xlink:href="#DejaVuSans-6f" transform="translate(315.185547 0)"/>
     <use xlink:href="#DejaVuSans-72" transform="translate(376.367188 0)"/>
     <use xlink:href="#DejaVuSans-65" transform="translate(415.230469 0)"/>
     <use xlink:href="#DejaVuSans-20" transform="translate(476.753906 0)"/>
     <use xlink:href="#DejaVuSans-70" transform="translate(508.541016 0)"/>
     <use xlink:href="#DejaVuSans-6f" transform="translate(572.017578 0)"/>
     <use xlink:href="#DejaVuSans-73" transform="translate(633.199219 0)"/>
     <use xlink:href="#DejaVuSans-69" transform="translate(685.298828 0)"/>
     <use xlink:href="#DejaVuSans-74" transform="translate(713.082031 0)"/>
     <use xlink:href="#DejaVuSans-69" transform="translate(752.291016 0)"/>
     <use xlink:href="#DejaVuSans-76" transform="translate(780.074219 0)"/>
     <use xlink:href="#DejaVuSans-65" transform="translate(839.253906 0)"/>
     <use xlink:href="#DejaVuSans-2c" transform="translate(900.777344 0)"/>
     <use xlink:href="#DejaVuSans-20" transform="translate(932.564453 0)"/>
     <use xlink:href="#DejaVuSans-74" transform="translate(964.351562 0)"/>
     <use xlink:href="#DejaVuSans-68" transform="translate(1003.560547 0)"/>
     <use xlink:href="#DejaVuSans-65" transform="translate(1066.939453 0)"/>
     <use xlink:href="#DejaVuSans-20" transform="translate(1128.462891 0)"/>
     <use xlink:href="#DejaVuSans-62" transform="translate(1160.25 0)"/>
     <use xlink:href="#DejaVuSans-65" transform="translate(1223.726562 0)"/>
     <use xlink:href="#DejaVuSans-74" transform="translate(1285.25 0)"/>
     <use xlink:href="#DejaVuSans-74" transform="translate(1324.458984 0)"/>
     <use xlink:href="#DejaVuSans-65" transform="translate(1363.667969 0)"/>
     <use xlink:href="#DejaVuSans-72" transform="translate(1425.191406 0)"/>
     <use xlink:href="#DejaVuSans-20" transform="translate(1466.304688 0)"/>
     <use xlink:href="#DejaVuSans-74" transform="translate(1498.091797 0)"/>
     <use xlink:href="#DejaVuSans-6f" transform="translate(1537.300781 0)"/>
     <use xlink:href="#DejaVuSans-20" transform="translate(1598.482422 0)"/>
     <use xlink:href="#DejaVuSans-57" transform="translate(1630.269531 0)"/>
     <use xlink:href="#DejaVuSans-68" transform="translate(1729.146484 0)"/>
     <use xlink:href="#DejaVuSans-69" transform="translate(1792.525391 0)"/>
     <use xlink:href="#DejaVuSans-74" transform="translate(1820.308594 0)"/>
     <use xlink:href="#DejaVuSans-65" transform="translate(1859.517578 0)"/>
     <use xlink:href="#DejaVuSans-20" transform="translate(1921.041016 0)"/>
     <use xlink:href="#DejaVuSans-28" transform="translate(1952.828125 0)"/>
     <use xlink:href="#DejaVuSans-61" transform="translate(1991.841797 0)"/>
     <use xlink:href="#DejaVuSans-69" transform="translate(2053.121094 0)"/>
     <use xlink:href="#DejaVuSans-5f" transform="translate(2080.904297 0)"/>
     <use xlink:href="#DejaVuSans-68" transform="translate(2130.904297 0)"/>
     <use xlink:href="#DejaVuSans-61" transform="translate(2194.283203 0)"/>
     <use xlink:href="#DejaVuSans-6e" transform="translate(2255.5625 0)"/>
     <use xlink:href="#DejaVuSans-64" transform="translate(2318.941406 0)"/>
     <use xlink:href="#DejaVuSans-63" transform="translate(2382.417969 0)"/>
     <use xlink:href="#DejaVuSans-72" transform="translate(2437.398438 0)"/>
     <use xlink:href="#DejaVuSans-61" transform="translate(2478.511719 0)"/>
     <use xlink:href="#DejaVuSans-66" transform="translate(2539.791016 0)"/>
     <use xlink:href="#DejaVuSans-74" transform="translate(2573.246094 0)"/>
     <use xlink:href="#DejaVuSans-29" transform="translate(2612.455078 0)"/>
    </g>
   </g>
  </g>
 </g>
 <defs>
  <clipPath id="p701cad0fff">
   <rect x="44.57" y="44.16" width="808.63" height="345.88"/>
  </clipPath>
 </defs>
</svg>
